<?xml version="1.0" encoding="UTF-8"?>
<svg width="154px" height="111px" viewBox="0 0 154 111" version="1.1" xmlns="http://www.w3.org/2000/svg" xmlns:xlink="http://www.w3.org/1999/xlink">
    <title>Artboard</title>
    <defs>
        <filter x="-32.5%" y="-55.2%" width="165.0%" height="210.5%" filterUnits="objectBoundingBox" id="filter-1">
            <feOffset dx="0" dy="0" in="SourceAlpha" result="shadowOffsetOuter1"></feOffset>
            <feGaussianBlur stdDeviation="10" in="shadowOffsetOuter1" result="shadowBlurOuter1"></feGaussianBlur>
            <feColorMatrix values="0 0 0 0 0   0 0 0 0 0   0 0 0 0 0  0 0 0 0.396880463 0" type="matrix" in="shadowBlurOuter1" result="shadowMatrixOuter1"></feColorMatrix>
            <feMerge>
                <feMergeNode in="shadowMatrixOuter1"></feMergeNode>
                <feMergeNode in="SourceGraphic"></feMergeNode>
            </feMerge>
        </filter>
    </defs>
    <g id="Artboard" stroke="none" stroke-width="1" fill="none" fill-rule="evenodd">
        <g id="Logo-2" filter="url(#filter-1)" transform="translate(17.000000, 20.000000)" fill-rule="nonzero">
            <path d="M109.872388,17.8139096 L108.37706,16.8386956 C105.126346,14.6282104 101.615576,13.0028537 97.9097625,11.8976112 C94.9841204,11.0524257 90.8232072,10.3372687 90.8232072,6.69646967 L90.5631501,7.02154101 C89.6529504,8.06176931 89.1328362,9.42706895 89.1328362,10.7923686 L89.1328362,11.1824542 L87.7025223,11.8976112 C85.4920372,13.0028537 83.7366519,14.8232532 82.6314094,17.0337384 L82.2413238,17.8789239 L76.8451395,23.3401224 L73.594426,15.0182961 C70.0836555,6.04632698 61.4367578,0.130028537 51.814646,0.130028537 L2.85890178,0.130028537 L2.85890178,0.130028537 C5.52448679,5.98131271 11.3107567,9.68712602 17.7471693,9.68712602 L17.7471693,9.68712602 C20.4127543,15.5384102 26.1990242,19.2442235 32.6354368,19.2442235 L32.6354368,19.2442235 C35.3010218,25.0955077 41.0872917,28.801321 47.5237043,28.801321 L47.5237043,28.801321 C50.1892893,34.6526052 55.9755592,38.3584185 62.4119718,38.3584185 L95.5042346,38.3584185 L95.5042346,28.9963638 C95.5692488,27.6310642 96.8045199,26.6558501 98.1698196,26.9159072 L99.4701049,27.1759643 C100.31529,27.3059928 101.160476,26.9809215 101.68059,26.3307788 L101.940647,25.9406932 C102.070676,25.7456504 101.940647,25.4855933 101.745604,25.4855933 C100.640362,25.420579 98.1698196,25.0955077 98.039791,23.0150511 C97.9747768,22.0398371 98.2998481,21.3246801 98.8849765,20.804566 C99.2100479,22.1048513 100.120248,23.3401224 101.22549,23.8602366 C102.980875,24.7054221 103.891075,23.0150511 103.891075,23.0150511 C102.395747,23.5351652 100.250276,22.3649084 100.250276,20.089409 C100.705376,19.9593805 101.22549,19.8943662 101.745604,19.8943662 C105.451418,19.8943662 106.816717,23.4051367 107.206803,24.8354506 C107.271817,25.0955077 107.596889,25.0955077 107.726917,24.9004649 L110.067431,21.5847372 C110.327488,21.1946516 110.457516,20.7395517 110.457516,20.2844518 L110.457516,18.5940808 C110.392502,18.399038 110.197459,18.0089524 109.872388,17.8139096 Z" id="Shape" fill="#DDB648"></path>
            <path d="M107.076774,24.9654791 C107.141789,25.2255362 107.46686,25.2255362 107.596889,25.0304934 L109.937402,21.7147657 C110.197459,21.3246801 110.327488,20.8695802 110.327488,20.4144803 L110.327488,18.7241094 C110.327488,18.3340238 110.132445,18.0089524 109.807374,17.8139096 L108.312045,16.8386956 C105.061332,14.6282104 101.550562,13.0028537 97.8447482,11.8976112 C94.9191061,11.0524257 90.7581929,10.3372687 90.7581929,6.69646967 L90.7581929,6.69646967 L90.4981359,7.02154101 C89.5879361,8.06176931 89.067822,9.42706895 89.067822,10.7923686 L89.067822,11.1824542 C91.2783071,21.9098085 84.4518089,26.4608073 72.6842263,34.847648 C72.6842263,34.847648 72.9442833,35.4327764 73.3993832,36.4079904 L95.1141489,32.2470772 L95.3091918,29.1914066 C95.374206,27.826107 96.6094771,26.8508929 97.9747768,27.11095 L99.2750621,27.3710071 C100.120248,27.5010356 100.965433,27.1759643 101.485547,26.5258216 L101.745604,26.135736 C101.875633,25.9406932 101.745604,25.6806361 101.550562,25.6806361 C100.445319,25.6156218 97.9747768,25.2905505 97.8447482,23.2100939 C97.779734,22.2348799 98.1048053,21.5197229 98.6899337,20.9996088 C99.0150051,22.2998941 99.9252048,23.5351652 101.030447,24.0552794 C102.785833,24.9004649 103.696032,23.2100939 103.696032,23.2100939 C102.200704,23.730208 100.055233,22.5599512 100.055233,20.2844518 C100.510333,20.1544233 101.030447,20.089409 101.550562,20.089409 C105.321389,20.0243947 106.686689,23.5351652 107.076774,24.9654791 Z" id="Shape" fill="#BE9521"></path>
            <path d="M64.9475283,19.374252 L32.5704225,19.374252 L32.5704225,19.374252 C35.2360075,25.2255362 41.0222775,28.9313495 47.45869,28.9313495 L68.7183559,28.9313495 L64.9475283,19.374252 Z" id="Shape" fill="#BE9521"></path>
            <path d="M64.9475283,19.374252 C62.6720289,13.5879821 57.1458161,9.81715456 50.9044463,9.81715456 L17.682155,9.81715456 L17.682155,9.81715456 C20.34774,15.6684387 26.1340099,19.374252 32.5704225,19.374252 L64.9475283,19.374252 L64.9475283,19.374252 Z" id="Shape" fill="#D0A52B"></path>
            <path d="M68.6533416,28.9313495 L47.3936758,28.9313495 L47.3936758,28.9313495 C50.0592608,34.7826337 55.8455307,38.488447 62.2819433,38.488447 L72.4241692,38.488447 L68.6533416,28.9313495 Z" id="Shape" fill="#AB820D"></path>
            <path d="M118.5843,48.5006444 C117.934157,47.7854874 116.373815,46.225145 113.643216,44.4047455 C112.79803,42.5843459 111.43273,41.0890178 109.742359,40.0487895 L112.472959,36.7330618 C112.472959,36.7330618 98.2998481,21.064623 72.6842263,34.7826337 C56.2356163,35.3027479 40.8922489,41.4791034 28.799595,48.3056016 C28.6045521,48.3056016 28.3444951,48.2405873 28.1494523,48.2405873 C27.369281,48.175573 26.4590813,48.0455445 25.3538387,47.8505017 C24.3136104,47.6554589 23.0783393,47.4604161 21.8430682,47.0703305 C21.2579398,46.8752877 20.6077971,46.6802449 20.0226687,46.4201878 C19.3075117,46.0951165 18.7873976,45.6400166 18.6573691,45.3799595 C18.5273405,45.1199024 19.0474547,44.6648025 19.1124689,44.534774 C19.372526,44.2747169 19.6325831,44.0796741 19.8926402,43.819617 C20.4777686,43.3645172 21.1929255,42.9094173 21.9730968,42.4543174 C22.6882537,41.9992175 23.5334392,41.6091319 24.3136104,41.154032 C25.0937816,40.6989322 25.9389671,40.2438323 26.7841526,39.6587039 C27.1742382,39.3986468 27.6293381,39.0735754 28.0194237,38.6834898 C28.2144665,38.488447 28.4745236,38.2283899 28.6695664,37.9683329 C28.8646092,37.7082758 29.059652,37.3181902 29.1896806,36.8630903 C29.1896806,36.7330618 29.2546948,36.6030332 29.2546948,36.538019 C29.2546948,36.4079904 29.2546948,36.2779619 29.2546948,36.1479334 C29.2546948,36.0179048 29.2546948,35.8878763 29.1896806,35.7578477 L29.1896806,35.6928335 L29.1896806,35.6278192 C29.1896806,35.6278192 29.1896806,35.5628049 29.1896806,35.5628049 L29.1896806,35.4977907 L29.1246663,35.3677621 C29.059652,35.3027479 29.059652,35.2377336 29.059652,35.1727193 C29.059652,35.1077051 28.9946378,35.0426908 28.9946378,34.9776765 C28.9296235,34.847648 28.8646092,34.7826337 28.799595,34.7176194 C28.6695664,34.5225766 28.5395379,34.3925481 28.4095093,34.3275338 C27.8893952,33.872434 27.369281,33.6773911 26.8491669,33.4173341 C25.8739529,33.0272485 24.8987388,32.8322057 23.9235248,32.6371628 C21.9730968,32.3771058 20.1526972,32.3120915 18.3322977,32.44212 C16.5118982,32.5721486 14.8215272,32.7671914 13.1961705,33.157277 C11.5708138,33.4823483 10.0754856,33.9374482 8.77520022,34.3925481 C6.04460094,35.3027479 3.89913007,36.3429762 2.46881616,37.1231474 C1.75365921,37.513233 1.16853079,37.8383043 0.778445181,38.0983614 C0.388359569,38.3584185 0.193316763,38.4234328 0.193316763,38.4234328 C0.193316763,38.4234328 1.29855933,42.1942603 3.639073,40.7639464 C6.30465801,39.203604 5.78454386,37.8383043 9.42534291,36.4079904 C10.660614,35.8878763 12.0909279,35.6278192 13.6512704,35.3027479 C15.1465985,35.0426908 16.7719553,34.7826337 18.4623262,34.7826337 C20.1526972,34.7176194 21.8430682,34.7826337 23.5334392,35.1077051 C24.3786247,35.2377336 25.1587959,35.4977907 25.8739529,35.822862 C26.0039814,35.8878763 26.1340099,35.9528905 26.2640385,36.0179048 C26.5240956,36.1479334 26.5891098,36.538019 26.3290527,36.7330618 C26.3290527,36.7330618 26.3290527,36.7330618 26.3290527,36.7330618 C26.0689957,36.9281046 25.7439243,37.1881616 25.418853,37.3832045 C24.703696,37.8383043 23.9235248,38.2283899 23.1433536,38.6184756 C22.3631824,39.0085612 21.5179969,39.3986468 20.7378256,39.8537467 C19.8926402,40.3088465 19.1124689,40.7639464 18.3322977,41.2840606 C17.9422121,41.5441176 17.5521265,41.869189 17.1620409,42.1942603 C16.7719553,42.5193317 16.3818696,42.9744316 16.0567983,43.4945457 C15.8617555,43.7546028 15.731727,44.0796741 15.6667127,44.4047455 L15.6016984,44.6648025 C15.6016984,44.7298168 15.5366842,44.8598453 15.5366842,44.9898739 C15.5366842,45.1199024 15.5366842,45.1199024 15.5366842,45.1849167 L15.5366842,45.249931 L15.5366842,45.249931 C15.5366842,45.3149452 15.5366842,45.1849167 15.5366842,45.3799595 L15.5366842,45.509988 C15.5366842,45.9000736 15.6667127,46.3551735 15.7967412,46.6802449 C15.9267698,47.0053162 16.1218126,47.3303876 16.3168554,47.5904446 C16.706941,48.1105588 17.1620409,48.4356301 17.5521265,48.7607015 C17.9422121,49.0207585 18.3322977,49.2808156 18.7223833,49.4758584 C19.5025545,49.865944 20.2177115,50.1260011 20.9328685,50.3860582 C21.9730968,50.7111295 22.9483108,51.0362009 23.7934963,51.2312437 C15.1465985,56.627428 8.71018595,61.8935837 5.58950106,64.624183 C4.48425849,65.599397 4.54927276,67.3547823 5.78454386,68.1999678 L8.45012888,70.1503958 L19.8926402,70.1503958 L18.2022692,68.1999678 C17.1620409,66.9646967 15.6016984,66.3795683 14.041356,66.6396253 L12.5460278,66.8346681 L11.8308708,65.7944398 C11.4407852,65.2093114 11.7008423,64.3641259 12.4159993,64.1040689 L15.3416414,63.0638406 L22.3631824,63.9740403 C23.4034107,64.1040689 24.3786247,63.9090261 25.2888244,63.3889119 C28.6045521,61.3734696 38.0316211,56.4323852 49.0840468,56.4323852 C70.2786983,56.4323852 89.9130075,70.2154101 89.9130075,70.2154101 L110.392502,70.2154101 L106.296603,65.599397 C105.386403,64.5591687 103.956089,64.1690831 102.655804,64.624183 L100.77039,65.2743257 C99.4050907,65.7294256 97.8447482,65.2743257 96.9345485,64.1040689 L93.9438921,60.2032127 L94.6590491,58.7728988 C96.5444629,55.1320998 101.550562,54.6119856 104.151132,57.7976848 L105.386403,59.3580272 C105.841503,59.8781414 106.621674,59.9431557 107.076774,59.4230415 L110.067431,56.4323852 C110.392502,56.1073138 110.197459,55.5871997 109.807374,55.4571711 C108.962188,55.2621283 108.051988,54.7420142 107.271817,54.0268572 C105.64646,52.4015005 105.256375,50.1910154 106.361617,49.0857728 C107.46686,47.9805302 109.677345,48.4356301 111.302702,49.9959726 C112.212902,50.9061723 112.733016,52.0114149 112.863044,53.0516432 C112.863044,53.3117003 113.188116,53.3767145 113.318144,53.246686 L114.553415,52.0114149 C114.748458,51.8163721 115.073529,51.6863436 115.333586,51.6863436 L115.918715,51.6863436 C116.243786,51.6863436 116.568858,51.556315 116.7639,51.2962579 L118.5843,49.2158013 C118.779343,49.0207585 118.779343,48.6956872 118.5843,48.5006444 Z" id="Shape" fill="#D0A52B"></path>
            <path d="M49.0190325,56.4973994 C41.3473488,56.4973994 34.5208506,58.8379131 29.9048375,60.983384 C28.9946378,62.6087407 28.4095093,63.9740403 28.0194237,65.0142686 C27.6293381,65.9894826 27.9544095,67.0947252 28.799595,67.6798536 L32.3753797,70.2804244 L43.8829053,70.2804244 L42.1925343,68.3299963 C41.152306,67.0947252 39.5919635,66.5095968 38.0316211,66.7696539 L36.5362929,66.9646967 L35.821136,65.9244684 C35.4310504,65.33934 35.6911074,64.4941545 36.4062644,64.2340974 L39.3319065,63.1938691 L46.3534475,64.1040689 C47.3936758,64.2340974 48.3688898,64.0390546 49.2790896,63.5189404 C51.4245604,62.2186551 56.0405735,59.7481129 61.956872,58.1227561 C57.7959588,57.0825278 53.4400028,56.4973994 49.0190325,56.4973994 Z" id="Shape" fill="#8A6600"></path>
            <path d="M77.1051965,43.6245742 C42.1925343,43.6245742 23.728482,59.9431557 19.8926402,63.7139832 L22.2331538,64.0390546 C23.2733821,64.1690831 24.2485962,63.9740403 25.1587959,63.4539262 C28.4745236,61.4384838 37.9015926,56.4973994 48.9540182,56.4973994 C55.6504879,56.4973994 62.1519148,57.8626991 68.0031989,59.7481129 C67.8731704,60.5932984 67.4830848,61.3734696 66.7679278,62.0236123 L62.216929,65.9244684 C61.956872,66.1195112 61.6968149,66.2495397 61.4367578,66.314554 L60.7216008,66.5095968 C60.2014867,66.6396253 60.0714582,67.2247538 60.4615438,67.5498251 L63.4522001,70.2804244 L64.3623999,69.7603102 C66.7679278,68.3950106 69.3034843,67.289768 71.9690693,66.6396253 L74.6996686,65.9244684 C76.0649682,65.5343828 77.2352251,64.8192258 78.2104391,63.8440118 C85.2969944,67.1597395 89.8479932,70.3454386 89.8479932,70.3454386 L110.327488,70.3454386 L106.231589,65.7294256 C105.321389,64.6891973 103.891075,64.2991117 102.59079,64.7542115 L100.705376,65.4043542 C99.3400764,65.8594541 97.779734,65.4043542 96.8695342,64.2340974 L93.8788778,60.3332413 L94.5940348,58.9029274 C96.4794486,55.2621283 101.485547,54.7420142 104.086118,57.9277133 L105.321389,59.4880558 C105.776489,60.0081699 106.55666,60.0731842 107.01176,59.5530701 L110.002416,56.5624137 C110.327488,56.2373424 110.132445,55.7172282 109.742359,55.5871997 C108.897174,55.3921569 107.986974,54.8720427 107.206803,54.1568858 C105.581446,52.531529 105.191361,50.3210439 106.296603,49.2158013 C107.401846,48.1105588 109.612331,48.5656587 111.237688,50.1260011 C112.147887,51.0362009 112.668001,52.1414434 112.79803,53.1816717 C112.79803,53.4417288 113.123101,53.5067431 113.25313,53.3767145 L114.488401,52.1414434 C114.683444,51.9464006 115.008515,51.8163721 115.268572,51.8163721 L115.853701,51.8163721 C116.178772,51.8163721 116.503843,51.6863436 116.698886,51.4262865 L118.194214,49.6709012 C115.788686,47.6554589 107.141789,43.6245742 77.1051965,43.6245742 Z" id="Shape" fill="#BE9521"></path>
            <path d="M77.690325,52.1414434 C79.3806959,53.5717573 80.4859385,55.7822425 80.4859385,58.1877704 C80.4859385,60.3332413 79.640753,62.3486836 78.2104391,63.7789975 C85.2969944,67.0947252 89.8479932,70.2804244 89.8479932,70.2804244 L96.2844058,70.2804244 C93.3587637,65.2093114 86.2722084,54.2219 77.690325,52.1414434 Z" id="Shape" fill="#AB820D"></path>
            <path d="M25.1587959,63.4539262 C28.4745236,61.4384838 37.9015926,56.4973994 48.9540182,56.4973994 C55.6504879,56.4973994 62.1519148,57.8626991 68.0031989,59.7481129 C67.8731704,60.5932984 67.4830848,61.3734696 66.7679278,62.0236123 L62.216929,65.9244684 C61.956872,66.1195112 61.6968149,66.2495397 61.4367578,66.314554 L60.7216008,66.5095968 C60.2014867,66.6396253 60.0714582,67.2247538 60.4615438,67.5498251 L63.4522001,70.2804244 L64.3623999,69.7603102 C66.7679278,68.3950106 69.3034843,67.289768 71.9690693,66.6396253 L74.6996686,65.9244684 C74.7646829,65.9244684 74.7646829,65.9244684 74.8296971,65.8594541 C76.3250253,63.7139832 77.3002393,59.6830986 75.0897542,56.5624137 C70.4087269,49.865944 44.3380052,46.8102734 19.9576544,63.7789975 L22.2981681,64.1040689 C23.2733821,64.1690831 24.3136104,63.9740403 25.1587959,63.4539262 Z" id="Shape" fill="#AB820D"></path>
        </g>
    </g>
</svg>